<svg xmlns="http://www.w3.org/2000/svg" viewBox="0 0 1770 362" width="1770" height="362">
<style>
  text { font-family: Montserrat, 'Segoe UI', Roboto, sans-serif; }
  .node-label { font-size: 13px; font-weight: 700; fill: #223354; }
  .port-label { font-size: 10px; font-weight: 600; fill: #223354; }
  .port-type-label { font-size: 10px; font-weight: 600; }
</style>
<defs>
  <pattern id="dot-grid" width="20" height="20" patternUnits="userSpaceOnUse">
    <circle cx="10" cy="10" r="1.5" fill="#5468ff" opacity="0.6"/>
  </pattern>
  <linearGradient id="conn-grad-0" x1="0%" y1="0%" x2="100%" y2="0%">
    <stop offset="0%" stop-color="#0ec850"/>
    <stop offset="100%" stop-color="#0ec850"/>
  </linearGradient>
  <linearGradient id="conn-grad-1" x1="0%" y1="0%" x2="100%" y2="0%">
    <stop offset="0%" stop-color="#9f5fe3"/>
    <stop offset="100%" stop-color="#9f5fe3"/>
  </linearGradient>
  <linearGradient id="conn-grad-2" x1="0%" y1="0%" x2="100%" y2="0%">
    <stop offset="0%" stop-color="#0ec850"/>
    <stop offset="100%" stop-color="#0ec850"/>
  </linearGradient>
  <linearGradient id="conn-grad-3" x1="0%" y1="0%" x2="100%" y2="0%">
    <stop offset="0%" stop-color="#63ccc4"/>
    <stop offset="100%" stop-color="#9f5fe3"/>
  </linearGradient>
  <linearGradient id="conn-grad-4" x1="0%" y1="0%" x2="100%" y2="0%">
    <stop offset="0%" stop-color="#0ec850"/>
    <stop offset="100%" stop-color="#0ec850"/>
  </linearGradient>
  <linearGradient id="conn-grad-5" x1="0%" y1="0%" x2="100%" y2="0%">
    <stop offset="0%" stop-color="#9f5fe3"/>
    <stop offset="100%" stop-color="#9f5fe3"/>
  </linearGradient>
  <linearGradient id="conn-grad-6" x1="0%" y1="0%" x2="100%" y2="0%">
    <stop offset="0%" stop-color="#0ec850"/>
    <stop offset="100%" stop-color="#0ec850"/>
  </linearGradient>
  <linearGradient id="conn-grad-7" x1="0%" y1="0%" x2="100%" y2="0%">
    <stop offset="0%" stop-color="#e34646"/>
    <stop offset="100%" stop-color="#0ec850"/>
  </linearGradient>
  <linearGradient id="conn-grad-8" x1="0%" y1="0%" x2="100%" y2="0%">
    <stop offset="0%" stop-color="#9f5fe3"/>
    <stop offset="100%" stop-color="#9f5fe3"/>
  </linearGradient>
  <linearGradient id="conn-grad-9" x1="0%" y1="0%" x2="100%" y2="0%">
    <stop offset="0%" stop-color="#9f5fe3"/>
    <stop offset="100%" stop-color="#9f5fe3"/>
  </linearGradient>
  <linearGradient id="conn-grad-10" x1="0%" y1="0%" x2="100%" y2="0%">
    <stop offset="0%" stop-color="#0ec850"/>
    <stop offset="100%" stop-color="#0ec850"/>
  </linearGradient>
  <linearGradient id="conn-grad-11" x1="0%" y1="0%" x2="100%" y2="0%">
    <stop offset="0%" stop-color="#9f5fe3"/>
    <stop offset="100%" stop-color="#9f5fe3"/>
  </linearGradient>
  <linearGradient id="conn-grad-12" x1="0%" y1="0%" x2="100%" y2="0%">
    <stop offset="0%" stop-color="#0ec850"/>
    <stop offset="100%" stop-color="#0ec850"/>
  </linearGradient>
  <linearGradient id="conn-grad-13" x1="0%" y1="0%" x2="100%" y2="0%">
    <stop offset="0%" stop-color="#9f5fe3"/>
    <stop offset="100%" stop-color="#9f5fe3"/>
  </linearGradient>
</defs>
<rect width="1770" height="362" fill="#f6f7ff"/>
<rect width="1770" height="362" fill="url(#dot-grid)"/>
<g class="connections">
  <path d="M 191.2264825184414,177.0002 M 130.0001,177.0001 L 150.0001,177.0002 Q 191.2264825184414,177.0002 207.50004999989432,177.00013947367313 L 282.4999500001057,176.99986052632687 Q 298.7735174815586,176.9998 339.9999,176.9998 L 359.9999,176.9999" fill="none" stroke="url(#conn-grad-0)" stroke-width="3" stroke-linecap="round" data-source="Start.execute:output" data-target="analyze.execute:input"/>
  <path d="M 191.2264825184414,199.0002 M 130.0001,199.0001 L 150.0001,199.0002 Q 191.2264825184414,199.0002 207.50004999989432,199.00013947367313 L 282.4999500001057,198.99986052632687 Q 298.7735174815586,198.9998 339.9999,198.9998 L 359.9999,198.9999" fill="none" stroke="url(#conn-grad-1)" stroke-width="3" stroke-dasharray="8 4" stroke-linecap="round" data-source="Start.pr:output" data-target="analyze.pr:input"/>
  <path d="M 511.22648251844134,177.0002 M 450.0001,177.0001 L 470.0001,177.0002 Q 511.22648251844134,177.0002 527.5000499998943,177.00013947367313 L 602.4999500001057,176.99986052632687 Q 618.7735174815587,176.9998 659.9999,176.9998 L 679.9999,176.9999" fill="none" stroke="url(#conn-grad-2)" stroke-width="3" stroke-linecap="round" data-source="analyze.onSuccess:output" data-target="classify.execute:input"/>
  <path d="M 511.22648251844134,199.0002 M 450.0001,199.0001 L 470.0001,199.0002 Q 511.22648251844134,199.0002 527.5000499998943,199.00013947367313 L 602.4999500001057,198.99986052632687 Q 618.7735174815587,198.9998 659.9999,198.9998 L 679.9999,198.9999" fill="none" stroke="url(#conn-grad-3)" stroke-width="3" stroke-dasharray="8 4" stroke-linecap="round" data-source="analyze.context:output" data-target="classify.context:input"/>
  <path d="M 831.2264825184413,177.0002 M 770.0001,177.0001 L 790.0001,177.0002 Q 831.2264825184413,177.0002 847.5000499998943,177.00013947367313 L 922.4999500001057,176.99986052632687 Q 938.7735174815587,176.9998 979.9999,176.9998 L 999.9999,176.9999" fill="none" stroke="url(#conn-grad-4)" stroke-width="3" stroke-linecap="round" data-source="classify.onSuccess:output" data-target="route.execute:input"/>
  <path d="M 831.2264825184413,199.0002 M 770.0001,199.0001 L 790.0001,199.0002 Q 831.2264825184413,199.0002 847.5000499998943,199.00013947367313 L 922.4999500001057,198.99986052632687 Q 938.7735174815587,198.9998 979.9999,198.9998 L 999.9999,198.9999" fill="none" stroke="url(#conn-grad-5)" stroke-width="3" stroke-dasharray="8 4" stroke-linecap="round" data-source="classify.context:output" data-target="route.context:input"/>
  <path d="M 1149.810404501458,177.0002 M 1090.0001,177.0001 L 1110.0001,177.0002 Q 1149.810404501458,177.0002 1166.108240486756,165.18788840231235 L 1243.891759513244,108.81211159768765 Q 1260.189595498542,96.9998 1299.9999,96.9998 L 1319.9999,96.9999" fill="none" stroke="url(#conn-grad-6)" stroke-width="3" stroke-linecap="round" data-source="route.onSuccess:output" data-target="approve.execute:input"/>
  <path d="M 1150.4255622356636,199.0002 M 1090.0001,199.0001 L 1110.0001,199.0002 Q 1150.4255622356636,199.0002 1166.7164315119487,207.65685264163548 L 1243.2835684880513,248.34314735836458 Q 1259.5744377643364,256.99980000000005 1299.9999,256.99980000000005 L 1319.9999,256.9999" fill="none" stroke="url(#conn-grad-7)" stroke-width="3" stroke-linecap="round" data-source="route.onFailure:output" data-target="request.execute:input"/>
  <path d="M 1149.1206853832005,221.0002 M 1090.0001,221.0001 L 1110.0001,221.0002 Q 1149.1206853832005,221.0002 1165.4196981132502,206.1243391428023 L 1244.5803018867498,133.8756608571977 Q 1260.8793146167995,118.9998 1299.9999,118.9998 L 1319.9999,118.9999" fill="none" stroke="url(#conn-grad-8)" stroke-width="3" stroke-dasharray="8 4" stroke-linecap="round" data-source="route.context:output" data-target="approve.context:input"/>
  <path d="M 1150.4255622356636,221.0002 M 1090.0001,221.0001 L 1110.0001,221.0002 Q 1150.4255622356636,221.0002 1166.7164315119487,229.65685264163548 L 1243.2835684880513,270.3431473583646 Q 1259.5744377643364,278.99980000000005 1299.9999,278.99980000000005 L 1319.9999,278.9999" fill="none" stroke="url(#conn-grad-9)" stroke-width="3" stroke-dasharray="8 4" stroke-linecap="round" data-source="route.context:output" data-target="request.context:input"/>
  <path d="M 1469.810459088222,97.0002 M 1410.0001,97.0001 L 1430.0001,97.0002 Q 1469.810459088222,97.0002 1486.1082947015648,108.81240488876121 L 1563.8917052984352,165.18759511123878 Q 1580.189540911778,176.9998 1619.9999,176.9998 L 1639.9999,176.9999" fill="none" stroke="url(#conn-grad-10)" stroke-width="3" stroke-linecap="round" data-source="approve.onSuccess:output" data-target="Exit.onSuccess:input"/>
  <path d="M 1469.1207466988612,119.0002 M 1410.0001,119.0001 L 1430.0001,119.0002 Q 1469.1207466988612,119.0002 1485.4197596390507,133.87596069900945 L 1564.5802403609493,206.12403930099055 Q 1580.8792533011388,220.9998 1619.9999,220.9998 L 1639.9999,220.9999" fill="none" stroke="url(#conn-grad-11)" stroke-width="3" stroke-dasharray="8 4" stroke-linecap="round" data-source="approve.review:output" data-target="Exit.review:input"/>
  <path d="M 1469.810404501458,257.00019999999995 M 1410.0001,257.0001 L 1430.0001,257.00019999999995 Q 1469.810404501458,257.00019999999995 1486.108240486756,245.1878884023123 L 1563.891759513244,188.81211159768765 Q 1580.189595498542,176.9998 1619.9999,176.9998 L 1639.9999,176.9999" fill="none" stroke="url(#conn-grad-12)" stroke-width="3" stroke-linecap="round" data-source="request.onSuccess:output" data-target="Exit.onSuccess:input"/>
  <path d="M 1470.425518241793,279.00019999999995 M 1410.0001,279.0001 L 1430.0001,279.00019999999995 Q 1470.425518241793,279.00019999999995 1486.7163882138732,270.3434345641418 L 1563.2836117861268,229.65656543585814 Q 1579.574481758207,220.9998 1619.9999,220.9998 L 1639.9999,220.9999" fill="none" stroke="url(#conn-grad-13)" stroke-width="3" stroke-dasharray="8 4" stroke-linecap="round" data-source="request.review:output" data-target="Exit.review:input"/>
</g>
<g class="nodes">
  <g data-node-id="Start">
    <rect x="40" y="152" width="90" height="90" rx="6" fill="#ffffff" stroke="#5468ff" stroke-width="2"/>
    <svg x="65" y="177" width="40" height="40" viewBox="0 -960 960 960"><path d="M314.02-192v-582l457.22 291-457.22 291Zm68.13-291Zm0 166.93L644.93-483 382.15-649.93v333.86Z" fill="#5468ff"/></svg>
    <circle cx="130" cy="177" r="7" fill="#0ec850" stroke="#087830" stroke-width="2" data-port-id="Start.execute:output" data-direction="output"/>
    <circle cx="130" cy="199" r="7" fill="#9f5fe3" stroke="#5f3988" stroke-width="2" data-port-id="Start.pr:output" data-direction="output"/>
  </g>
  <g data-node-id="Exit">
    <rect x="1640" y="152" width="90" height="94" rx="6" fill="#ffffff" stroke="#5468ff" stroke-width="2"/>
    <svg x="1665" y="179" width="40" height="40" viewBox="0 -960 960 960"><path d="M302.15-657.85v355.7-355.7Zm-68.13 423.83v-492.2h492.2v492.2h-492.2Zm68.13-68.13h355.7v-355.7h-355.7v355.7Z" fill="#5468ff"/></svg>
    <circle cx="1640" cy="177" r="7" fill="#0ec850" stroke="#087830" stroke-width="2" data-port-id="Exit.onSuccess:input" data-direction="input"/>
    <circle cx="1640" cy="199" r="7" fill="#e34646" stroke="#882a2a" stroke-width="2" data-port-id="Exit.onFailure:input" data-direction="input"/>
    <circle cx="1640" cy="221" r="7" fill="#9f5fe3" stroke="#5f3988" stroke-width="2" data-port-id="Exit.review:input" data-direction="input"/>
  </g>
  <g data-node-id="analyze">
    <rect x="360" y="152" width="90" height="90" rx="6" fill="#ffffff" stroke="#9f5fe3" stroke-width="2"/>
    <svg x="385" y="177" width="40" height="40" viewBox="0 -960 960 960"><path d="M234.74-74.74v-174.87q-57-52.72-88.5-122.93-31.5-70.22-31.5-147.46 0-152.29 106.5-258.9 106.5-106.6 258.65-106.6 126.78 0 224.72 74.82 97.93 74.81 127.65 194.48l55.24 219.44q4.48 16.15-5.7 29.09-10.17 12.93-27.13 12.93H765.5v131.87q0 28.35-19.96 48.24t-48.41 19.89H605.5v80h-68.37v-148.13h160v-200h113.28l-44.04-176.41q-24-95.81-104.28-156.83-80.29-61.02-181.98-61.02-123.86 0-210.55 85.74-86.69 85.75-86.69 208.98 0 63.62 26.08 121.25 26.09 57.63 73.96 102.01l19.96 18.92v205.49h-68.13Zm262.02-371.19ZM449-374h60l3-44q12-2 22.5-8.46 10.49-6.46 18.52-14.54l41.74 14L623-475l-30-24q5-14 5-29t-5-29l30-24-28.24-48-41.71 14q-8.3-7.69-19.15-13.85-10.86-6.15-21.88-9.15L509-682h-60l-3 44q-11 3-21.83 9.15-10.84 6.16-19.12 13.85l-41.57-14L335-581l30 24q-5 14-5 29t5 29l-30 24 28.48 48 41.57-14q8.01 8.08 18.48 14.54Q434-420 446-418l3 44Zm30.12-84q-29.12 0-49.62-20.38-20.5-20.38-20.5-49.5t20.38-49.62q20.38-20.5 49.5-20.5t49.62 20.38q20.5 20.38 20.5 49.5t-20.38 49.62q-20.38 20.5-49.5 20.5Z" fill="#9f5fe3"/></svg>
    <circle cx="360" cy="177" r="7" fill="#0ec850" stroke="#087830" stroke-width="2" data-port-id="analyze.execute:input" data-direction="input"/>
    <circle cx="360" cy="199" r="7" fill="#9f5fe3" stroke="#5f3988" stroke-width="2" data-port-id="analyze.pr:input" data-direction="input"/>
    <circle cx="450" cy="177" r="7" fill="#0ec850" stroke="#087830" stroke-width="2" data-port-id="analyze.onSuccess:output" data-direction="output"/>
    <circle cx="450" cy="199" r="7" fill="#63ccc4" stroke="#3b7a76" stroke-width="2" data-port-id="analyze.context:output" data-direction="output"/>
  </g>
  <g data-node-id="classify">
    <rect x="680" y="152" width="90" height="90" rx="6" fill="#ffffff" stroke="#63ccc4" stroke-width="2"/>
    <svg x="705" y="177" width="40" height="40" viewBox="0 -960 960 960"><path d="M440-154.02q-19.39 0-32.68-13.3-13.3-13.29-13.3-32.68v-237.85L156.46-741.41q-16.39-20.11-4.84-42.46T188-806.22h584q24.83 0 36.38 22.35 11.55 22.35-4.6 42.46L566.22-437.85v239.76q0 18.92-12.7 31.49-12.69 12.58-31.61 12.58H440Zm40-285.57 235.46-298.26H244.78L480-439.59Zm0 0Z" fill="#63ccc4"/></svg>
    <circle cx="680" cy="177" r="7" fill="#0ec850" stroke="#087830" stroke-width="2" data-port-id="classify.execute:input" data-direction="input"/>
    <circle cx="680" cy="199" r="7" fill="#9f5fe3" stroke="#5f3988" stroke-width="2" data-port-id="classify.context:input" data-direction="input"/>
    <circle cx="770" cy="177" r="7" fill="#0ec850" stroke="#087830" stroke-width="2" data-port-id="classify.onSuccess:output" data-direction="output"/>
    <circle cx="770" cy="199" r="7" fill="#9f5fe3" stroke="#5f3988" stroke-width="2" data-port-id="classify.context:output" data-direction="output"/>
  </g>
  <g data-node-id="route">
    <rect x="1000" y="152" width="90" height="94" rx="6" fill="#ffffff" stroke="#e3732d" stroke-width="2"/>
    <svg x="1025" y="179" width="40" height="40" viewBox="0 -960 960 960"><path d="M447.93-154.02v-310.31L222.15-690.11v117.26h-68.13v-233.37h233.13v68.37H270.89l245.18 245.18v338.65h-68.14Zm122.81-369.74L523-571.5l165.87-166.35H572.85v-68.37h233.37v233.37h-68.37v-117.02L570.74-523.76Z" fill="#e3732d"/></svg>
    <circle cx="1000" cy="177" r="7" fill="#0ec850" stroke="#087830" stroke-width="2" data-port-id="route.execute:input" data-direction="input"/>
    <circle cx="1000" cy="199" r="7" fill="#9f5fe3" stroke="#5f3988" stroke-width="2" data-port-id="route.context:input" data-direction="input"/>
    <circle cx="1090" cy="177" r="7" fill="#0ec850" stroke="#087830" stroke-width="2" data-port-id="route.onSuccess:output" data-direction="output"/>
    <circle cx="1090" cy="199" r="7" fill="#e34646" stroke="#882a2a" stroke-width="2" data-port-id="route.onFailure:output" data-direction="output"/>
    <circle cx="1090" cy="221" r="7" fill="#9f5fe3" stroke="#5f3988" stroke-width="2" data-port-id="route.context:output" data-direction="output"/>
  </g>
  <g data-node-id="approve">
    <rect x="1320" y="72" width="90" height="90" rx="6" fill="#ffffff" stroke="#0ec850" stroke-width="2"/>
    <svg x="1345" y="97" width="40" height="40" viewBox="0 -960 960 960"><path d="m420.52-294.41 285.63-285.63-50.78-50.03-234.85 234.85-117.85-117.85-49.78 50.03 167.63 168.63Zm59.51 220.39q-83.46 0-157.54-31.88-74.07-31.88-129.39-87.2-55.32-55.32-87.2-129.36-31.88-74.04-31.88-157.51 0-84.46 31.88-158.54 31.88-74.07 87.16-128.9 55.28-54.84 129.34-86.82 74.06-31.99 157.55-31.99 84.48 0 158.59 31.97 74.1 31.97 128.91 86.77 54.82 54.8 86.79 128.88 31.98 74.08 31.98 158.6 0 83.5-31.99 157.57-31.98 74.07-86.82 129.36-54.83 55.29-128.87 87.17-74.04 31.88-158.51 31.88Zm-.03-68.13q141.04 0 239.45-98.75 98.4-98.76 98.4-239.1 0-141.04-98.4-239.45-98.41-98.4-239.57-98.4-140.16 0-238.95 98.4-98.78 98.41-98.78 239.57 0 140.16 98.75 238.95 98.76 98.78 239.1 98.78ZM480-480Z" fill="#0ec850"/></svg>
    <circle cx="1320" cy="97" r="7" fill="#0ec850" stroke="#087830" stroke-width="2" data-port-id="approve.execute:input" data-direction="input"/>
    <circle cx="1320" cy="119" r="7" fill="#9f5fe3" stroke="#5f3988" stroke-width="2" data-port-id="approve.context:input" data-direction="input"/>
    <circle cx="1410" cy="97" r="7" fill="#0ec850" stroke="#087830" stroke-width="2" data-port-id="approve.onSuccess:output" data-direction="output"/>
    <circle cx="1410" cy="119" r="7" fill="#9f5fe3" stroke="#5f3988" stroke-width="2" data-port-id="approve.review:output" data-direction="output"/>
  </g>
  <g data-node-id="request">
    <rect x="1320" y="232" width="90" height="90" rx="6" fill="#ffffff" stroke="#e34646" stroke-width="2"/>
    <svg x="1345" y="257" width="40" height="40" viewBox="0 -960 960 960"><path d="M34.74-116.89 480-886.22l445.26 769.33H34.74Zm113.8-65.74h662.92L480-754.98 148.54-182.63Zm335.64-54.85q12.96 0 21.87-9.08 8.91-9.09 8.91-22.05t-9.09-21.75q-9.08-8.79-22.05-8.79-12.96 0-21.87 8.96-8.91 8.97-8.91 21.93 0 12.96 9.09 21.87 9.08 8.91 22.05 8.91ZM454-348h60v-222.09h-60V-348Zm26-120.8Z" fill="#e34646"/></svg>
    <circle cx="1320" cy="257" r="7" fill="#0ec850" stroke="#087830" stroke-width="2" data-port-id="request.execute:input" data-direction="input"/>
    <circle cx="1320" cy="279" r="7" fill="#9f5fe3" stroke="#5f3988" stroke-width="2" data-port-id="request.context:input" data-direction="input"/>
    <circle cx="1410" cy="257" r="7" fill="#0ec850" stroke="#087830" stroke-width="2" data-port-id="request.onSuccess:output" data-direction="output"/>
    <circle cx="1410" cy="279" r="7" fill="#9f5fe3" stroke="#5f3988" stroke-width="2" data-port-id="request.review:output" data-direction="output"/>
  </g>
</g>
<g class="labels">
    <g data-label-for="Start">
      <rect x="59.5" y="120" width="51" height="20" rx="6" fill="#ffffff" opacity="0.8"/>
      <text class="node-label" x="85" y="136" text-anchor="middle" fill="#223354">Start</text>
    </g>
    <g data-port-label="Start.execute:output">
      <rect x="142" y="169" width="80.81" height="16" rx="8" fill="#ffffff" stroke="#e6e6e6" stroke-width="1"/>
      <line x1="172.45" y1="172" x2="172.45" y2="182" stroke="#e6e6e6" stroke-width="1"/>
      <text class="port-type-label" x="158.725" y="180.5" text-anchor="middle" fill="#0ec850">STP</text>
      <text class="port-label" x="177.45" y="180.5" text-anchor="start">Execute</text>
    </g>
    <g data-port-label="Start.pr:output">
      <rect x="142" y="191" width="80.82" height="16" rx="8" fill="#ffffff" stroke="#e6e6e6" stroke-width="1"/>
      <line x1="173.57" y1="194" x2="173.57" y2="204" stroke="#e6e6e6" stroke-width="1"/>
      <text class="port-type-label" x="159.285" y="202.5" text-anchor="middle" fill="#9f5fe3">OBJ</text>
      <text class="port-label" x="178.57" y="202.5" text-anchor="start">PR data</text>
    </g>
    <g data-label-for="Exit">
      <rect x="1663" y="120" width="44" height="20" rx="6" fill="#ffffff" opacity="0.8"/>
      <text class="node-label" x="1685" y="136" text-anchor="middle" fill="#223354">Exit</text>
    </g>
    <g data-port-label="Exit.onSuccess:input">
      <rect x="1528.3" y="169" width="99.70000000000002" height="16" rx="8" fill="#ffffff" stroke="#e6e6e6" stroke-width="1"/>
      <line x1="1597.5500000000002" y1="172" x2="1597.5500000000002" y2="182" stroke="#e6e6e6" stroke-width="1"/>
      <text class="port-label" x="1593.5500000000002" y="180.5" text-anchor="end">On Success</text>
      <text class="port-type-label" x="1611.275" y="180.5" text-anchor="middle" fill="#0ec850">STP</text>
    </g>
    <g data-port-label="Exit.onFailure:input">
      <rect x="1536.08" y="191" width="91.92" height="16" rx="8" fill="#ffffff" stroke="#e6e6e6" stroke-width="1"/>
      <line x1="1597.5500000000002" y1="194" x2="1597.5500000000002" y2="204" stroke="#e6e6e6" stroke-width="1"/>
      <text class="port-label" x="1593.5500000000002" y="202.5" text-anchor="end">On Failure</text>
      <text class="port-type-label" x="1611.275" y="202.5" text-anchor="middle" fill="#e34646">STP</text>
    </g>
    <g data-port-label="Exit.review:input">
      <rect x="1553.85" y="213" width="74.15" height="16" rx="8" fill="#ffffff" stroke="#e6e6e6" stroke-width="1"/>
      <line x1="1596.4299999999998" y1="216" x2="1596.4299999999998" y2="226" stroke="#e6e6e6" stroke-width="1"/>
      <text class="port-label" x="1592.4299999999998" y="224.5" text-anchor="end">Result</text>
      <text class="port-type-label" x="1610.715" y="224.5" text-anchor="middle" fill="#9f5fe3">OBJ</text>
    </g>
    <g data-label-for="analyze">
      <rect x="355" y="120" width="100" height="20" rx="6" fill="#ffffff" opacity="0.8"/>
      <text class="node-label" x="405" y="136" text-anchor="middle" fill="#9f5fe3">Analyze Diff</text>
    </g>
    <g data-port-label="analyze.execute:input">
      <rect x="267.19" y="169" width="80.81" height="16" rx="8" fill="#ffffff" stroke="#e6e6e6" stroke-width="1"/>
      <line x1="317.54999999999995" y1="172" x2="317.54999999999995" y2="182" stroke="#e6e6e6" stroke-width="1"/>
      <text class="port-label" x="313.54999999999995" y="180.5" text-anchor="end">Execute</text>
      <text class="port-type-label" x="331.275" y="180.5" text-anchor="middle" fill="#0ec850">STP</text>
    </g>
    <g data-port-label="analyze.pr:input">
      <rect x="267.18" y="191" width="80.82" height="16" rx="8" fill="#ffffff" stroke="#e6e6e6" stroke-width="1"/>
      <line x1="316.42999999999995" y1="194" x2="316.42999999999995" y2="204" stroke="#e6e6e6" stroke-width="1"/>
      <text class="port-label" x="312.42999999999995" y="202.5" text-anchor="end">PR data</text>
      <text class="port-type-label" x="330.715" y="202.5" text-anchor="middle" fill="#9f5fe3">OBJ</text>
    </g>
    <g data-port-label="analyze.onSuccess:output">
      <rect x="462" y="169" width="99.70000000000002" height="16" rx="8" fill="#ffffff" stroke="#e6e6e6" stroke-width="1"/>
      <line x1="492.45" y1="172" x2="492.45" y2="182" stroke="#e6e6e6" stroke-width="1"/>
      <text class="port-type-label" x="478.725" y="180.5" text-anchor="middle" fill="#0ec850">STP</text>
      <text class="port-label" x="497.45" y="180.5" text-anchor="start">On Success</text>
    </g>
    <g data-port-label="analyze.context:output">
      <rect x="462" y="191" width="81.38" height="16" rx="8" fill="#ffffff" stroke="#e6e6e6" stroke-width="1"/>
      <line x1="494.13" y1="194" x2="494.13" y2="204" stroke="#e6e6e6" stroke-width="1"/>
      <text class="port-type-label" x="479.565" y="202.5" text-anchor="middle" fill="#63ccc4">ANY</text>
      <text class="port-label" x="499.13" y="202.5" text-anchor="start">Context</text>
    </g>
    <g data-label-for="classify">
      <rect x="657.5" y="120" width="135" height="20" rx="6" fill="#ffffff" opacity="0.8"/>
      <text class="node-label" x="725" y="136" text-anchor="middle" fill="#63ccc4">Classify Severity</text>
    </g>
    <g data-port-label="classify.execute:input">
      <rect x="587.19" y="169" width="80.81" height="16" rx="8" fill="#ffffff" stroke="#e6e6e6" stroke-width="1"/>
      <line x1="637.55" y1="172" x2="637.55" y2="182" stroke="#e6e6e6" stroke-width="1"/>
      <text class="port-label" x="633.55" y="180.5" text-anchor="end">Execute</text>
      <text class="port-type-label" x="651.275" y="180.5" text-anchor="middle" fill="#0ec850">STP</text>
    </g>
    <g data-port-label="classify.context:input">
      <rect x="587.1800000000001" y="191" width="80.82" height="16" rx="8" fill="#ffffff" stroke="#e6e6e6" stroke-width="1"/>
      <line x1="636.4300000000001" y1="194" x2="636.4300000000001" y2="204" stroke="#e6e6e6" stroke-width="1"/>
      <text class="port-label" x="632.4300000000001" y="202.5" text-anchor="end">Context</text>
      <text class="port-type-label" x="650.715" y="202.5" text-anchor="middle" fill="#9f5fe3">OBJ</text>
    </g>
    <g data-port-label="classify.onSuccess:output">
      <rect x="782" y="169" width="99.70000000000002" height="16" rx="8" fill="#ffffff" stroke="#e6e6e6" stroke-width="1"/>
      <line x1="812.45" y1="172" x2="812.45" y2="182" stroke="#e6e6e6" stroke-width="1"/>
      <text class="port-type-label" x="798.725" y="180.5" text-anchor="middle" fill="#0ec850">STP</text>
      <text class="port-label" x="817.45" y="180.5" text-anchor="start">On Success</text>
    </g>
    <g data-port-label="classify.context:output">
      <rect x="782" y="191" width="80.82" height="16" rx="8" fill="#ffffff" stroke="#e6e6e6" stroke-width="1"/>
      <line x1="813.57" y1="194" x2="813.57" y2="204" stroke="#e6e6e6" stroke-width="1"/>
      <text class="port-type-label" x="799.285" y="202.5" text-anchor="middle" fill="#9f5fe3">OBJ</text>
      <text class="port-label" x="818.57" y="202.5" text-anchor="start">Context</text>
    </g>
    <g data-label-for="route">
      <rect x="995" y="120" width="100" height="20" rx="6" fill="#ffffff" opacity="0.8"/>
      <text class="node-label" x="1045" y="136" text-anchor="middle" fill="#e3732d">Route Review</text>
    </g>
    <g data-port-label="route.execute:input">
      <rect x="907.19" y="169" width="80.81" height="16" rx="8" fill="#ffffff" stroke="#e6e6e6" stroke-width="1"/>
      <line x1="957.55" y1="172" x2="957.55" y2="182" stroke="#e6e6e6" stroke-width="1"/>
      <text class="port-label" x="953.55" y="180.5" text-anchor="end">Execute</text>
      <text class="port-type-label" x="971.275" y="180.5" text-anchor="middle" fill="#0ec850">STP</text>
    </g>
    <g data-port-label="route.context:input">
      <rect x="907.1800000000001" y="191" width="80.82" height="16" rx="8" fill="#ffffff" stroke="#e6e6e6" stroke-width="1"/>
      <line x1="956.4300000000001" y1="194" x2="956.4300000000001" y2="204" stroke="#e6e6e6" stroke-width="1"/>
      <text class="port-label" x="952.4300000000001" y="202.5" text-anchor="end">Context</text>
      <text class="port-type-label" x="970.715" y="202.5" text-anchor="middle" fill="#9f5fe3">OBJ</text>
    </g>
    <g data-port-label="route.onSuccess:output">
      <rect x="1102" y="169" width="57.46000000000001" height="16" rx="8" fill="#ffffff" stroke="#e6e6e6" stroke-width="1"/>
      <line x1="1132.45" y1="172" x2="1132.45" y2="182" stroke="#e6e6e6" stroke-width="1"/>
      <text class="port-type-label" x="1118.725" y="180.5" text-anchor="middle" fill="#0ec850">STP</text>
      <text class="port-label" x="1137.45" y="180.5" text-anchor="start">OK</text>
    </g>
    <g data-port-label="route.onFailure:output">
      <rect x="1102" y="191" width="59.68000000000001" height="16" rx="8" fill="#ffffff" stroke="#e6e6e6" stroke-width="1"/>
      <line x1="1132.45" y1="194" x2="1132.45" y2="204" stroke="#e6e6e6" stroke-width="1"/>
      <text class="port-type-label" x="1118.725" y="202.5" text-anchor="middle" fill="#e34646">STP</text>
      <text class="port-label" x="1137.45" y="202.5" text-anchor="start">Fail</text>
    </g>
    <g data-port-label="route.context:output">
      <rect x="1102" y="213" width="80.82" height="16" rx="8" fill="#ffffff" stroke="#e6e6e6" stroke-width="1"/>
      <line x1="1133.57" y1="216" x2="1133.57" y2="226" stroke="#e6e6e6" stroke-width="1"/>
      <text class="port-type-label" x="1119.285" y="224.5" text-anchor="middle" fill="#9f5fe3">OBJ</text>
      <text class="port-label" x="1138.57" y="224.5" text-anchor="start">Context</text>
    </g>
    <g data-label-for="approve">
      <rect x="1332.5" y="40" width="65" height="20" rx="6" fill="#ffffff" opacity="0.8"/>
      <text class="node-label" x="1365" y="56" text-anchor="middle" fill="#0ec850">Approve</text>
    </g>
    <g data-port-label="approve.execute:input">
      <rect x="1227.19" y="89" width="80.81" height="16" rx="8" fill="#ffffff" stroke="#e6e6e6" stroke-width="1"/>
      <line x1="1277.5500000000002" y1="92" x2="1277.5500000000002" y2="102" stroke="#e6e6e6" stroke-width="1"/>
      <text class="port-label" x="1273.5500000000002" y="100.5" text-anchor="end">Execute</text>
      <text class="port-type-label" x="1291.275" y="100.5" text-anchor="middle" fill="#0ec850">STP</text>
    </g>
    <g data-port-label="approve.context:input">
      <rect x="1227.18" y="111" width="80.82" height="16" rx="8" fill="#ffffff" stroke="#e6e6e6" stroke-width="1"/>
      <line x1="1276.4299999999998" y1="114" x2="1276.4299999999998" y2="124" stroke="#e6e6e6" stroke-width="1"/>
      <text class="port-label" x="1272.4299999999998" y="122.5" text-anchor="end">Context</text>
      <text class="port-type-label" x="1290.715" y="122.5" text-anchor="middle" fill="#9f5fe3">OBJ</text>
    </g>
    <g data-port-label="approve.onSuccess:output">
      <rect x="1422" y="89" width="99.70000000000002" height="16" rx="8" fill="#ffffff" stroke="#e6e6e6" stroke-width="1"/>
      <line x1="1452.45" y1="92" x2="1452.45" y2="102" stroke="#e6e6e6" stroke-width="1"/>
      <text class="port-type-label" x="1438.725" y="100.5" text-anchor="middle" fill="#0ec850">STP</text>
      <text class="port-label" x="1457.45" y="100.5" text-anchor="start">On Success</text>
    </g>
    <g data-port-label="approve.review:output">
      <rect x="1422" y="111" width="74.15" height="16" rx="8" fill="#ffffff" stroke="#e6e6e6" stroke-width="1"/>
      <line x1="1453.57" y1="114" x2="1453.57" y2="124" stroke="#e6e6e6" stroke-width="1"/>
      <text class="port-type-label" x="1439.285" y="122.5" text-anchor="middle" fill="#9f5fe3">OBJ</text>
      <text class="port-label" x="1458.57" y="122.5" text-anchor="start">Result</text>
    </g>
    <g data-label-for="request">
      <rect x="1304.5" y="200" width="121" height="20" rx="6" fill="#ffffff" opacity="0.8"/>
      <text class="node-label" x="1365" y="216" text-anchor="middle" fill="#e34646">Request Changes</text>
    </g>
    <g data-port-label="request.execute:input">
      <rect x="1227.19" y="249" width="80.81" height="16" rx="8" fill="#ffffff" stroke="#e6e6e6" stroke-width="1"/>
      <line x1="1277.5500000000002" y1="252" x2="1277.5500000000002" y2="262" stroke="#e6e6e6" stroke-width="1"/>
      <text class="port-label" x="1273.5500000000002" y="260.5" text-anchor="end">Execute</text>
      <text class="port-type-label" x="1291.275" y="260.5" text-anchor="middle" fill="#0ec850">STP</text>
    </g>
    <g data-port-label="request.context:input">
      <rect x="1227.18" y="271" width="80.82" height="16" rx="8" fill="#ffffff" stroke="#e6e6e6" stroke-width="1"/>
      <line x1="1276.4299999999998" y1="274" x2="1276.4299999999998" y2="284" stroke="#e6e6e6" stroke-width="1"/>
      <text class="port-label" x="1272.4299999999998" y="282.5" text-anchor="end">Context</text>
      <text class="port-type-label" x="1290.715" y="282.5" text-anchor="middle" fill="#9f5fe3">OBJ</text>
    </g>
    <g data-port-label="request.onSuccess:output">
      <rect x="1422" y="249" width="99.70000000000002" height="16" rx="8" fill="#ffffff" stroke="#e6e6e6" stroke-width="1"/>
      <line x1="1452.45" y1="252" x2="1452.45" y2="262" stroke="#e6e6e6" stroke-width="1"/>
      <text class="port-type-label" x="1438.725" y="260.5" text-anchor="middle" fill="#0ec850">STP</text>
      <text class="port-label" x="1457.45" y="260.5" text-anchor="start">On Success</text>
    </g>
    <g data-port-label="request.review:output">
      <rect x="1422" y="271" width="74.15" height="16" rx="8" fill="#ffffff" stroke="#e6e6e6" stroke-width="1"/>
      <line x1="1453.57" y1="274" x2="1453.57" y2="284" stroke="#e6e6e6" stroke-width="1"/>
      <text class="port-type-label" x="1439.285" y="282.5" text-anchor="middle" fill="#9f5fe3">OBJ</text>
      <text class="port-label" x="1458.57" y="282.5" text-anchor="start">Result</text>
    </g>
</g>
<g opacity="0.5">
  <svg x="1636" y="330" width="22" height="22" viewBox="0 0 256 256" fill="none"><path d="M80 128C134 128 122 49 176 49" stroke="#5468ff" stroke-width="14" stroke-linecap="round"/><path d="M80 128C134 128 122 207 176 207" stroke="#5468ff" stroke-width="14" stroke-linecap="round"/><rect x="28" y="102" width="52" height="52" rx="10" stroke="#5468ff" stroke-width="14"/><rect x="176" y="23" width="52" height="52" rx="10" stroke="#5468ff" stroke-width="14"/><rect x="176" y="181" width="52" height="52" rx="10" stroke="#5468ff" stroke-width="14"/></svg>
  <text x="1754" y="348" text-anchor="end" font-size="14" font-weight="700" fill="#5468ff" font-family="Montserrat, 'Segoe UI', Roboto, sans-serif">Flow Weaver</text>
</g>
</svg>